<svg width="24" height="75" xmlns="http://www.w3.org/2000/svg" preserveAspectRatio="xMidYMid">
 <defs>
  <style>.cls-1 {
        fill: #00e1a4;
        fill-rule: evenodd;
      }</style>
 </defs>
 <g>
  <title>background</title>
  <rect fill="none" id="canvas_background" height="402" width="582" y="-1" x="-1"/>
 </g>
 <g>
  <title>Layer 1</title>
  <path id="svg_1" class="cls-1" d="m22.839,8.508c-0.63,0 -1.162,-0.54 -1.162,-1.178l0,-3.295l-8.833,8.958c-0.445,0.451 -1.197,0.451 -1.642,0c-0.445,-0.451 -0.445,-1.214 0,-1.666l8.833,-8.958l-3.249,0c-0.63,0 -1.162,-0.539 -1.162,-1.178c0,-0.638 0.532,-1.177 1.162,-1.177l6.053,0c0.149,0 0.295,0.03 0.434,0.089l0.024,0.01c0.137,0.058 0.259,0.141 0.363,0.246c0.103,0.105 0.185,0.229 0.242,0.368l0.011,0.024c0.057,0.142 0.087,0.29 0.087,0.44l0,6.139c0,0.638 -0.532,1.178 -1.161,1.178zm-11.258,-6.139l-5.056,0c-0.141,0 -0.287,-0.002 -0.428,-0.004c-0.376,-0.006 -0.764,-0.012 -1.148,0.021l-0.03,0.004c-0.252,0.048 -0.502,0.116 -0.742,0.205l-0.015,0.006l-0.014,0.006c-0.223,0.109 -0.44,0.238 -0.643,0.381l-0.024,0.019c-0.189,0.163 -0.367,0.343 -0.528,0.535l-0.018,0.024c-0.142,0.207 -0.268,0.426 -0.376,0.653l-0.006,0.014l-0.006,0.015c-0.086,0.239 -0.153,0.489 -0.199,0.74l-0.003,0.017l-0.002,0.017c-0.02,0.259 -0.019,0.516 -0.019,0.765c0.001,0.045 0.001,0.09 0.001,0.135l0,12.389c0,0.067 -0.001,0.135 -0.001,0.203c-0.002,0.269 -0.003,0.548 0.019,0.828l0.001,0.017l0.003,0.016c0.047,0.252 0.114,0.502 0.2,0.742l0.006,0.015l0.006,0.014c0.108,0.227 0.234,0.447 0.376,0.653l0.018,0.024c0.161,0.192 0.339,0.372 0.528,0.535l0.024,0.019c0.203,0.144 0.42,0.272 0.643,0.381l0.029,0.012c0.236,0.087 0.481,0.155 0.73,0.202l0.016,0.003l0.017,0.002c0.255,0.02 0.509,0.02 0.754,0.019c0.045,0 0.09,0 0.134,0l12.215,0c0.067,0 0.134,0 0.201,0.001c0.266,0.001 0.541,0.003 0.817,-0.02l0.016,-0.001l0.017,-0.003c0.248,-0.047 0.494,-0.116 0.731,-0.203l0.029,-0.012c0.223,-0.109 0.44,-0.237 0.643,-0.381l0.024,-0.019c0.189,-0.163 0.366,-0.343 0.527,-0.535l0.019,-0.024c0.142,-0.206 0.268,-0.426 0.375,-0.653l0.007,-0.014l0.006,-0.015c0.086,-0.239 0.153,-0.488 0.199,-0.739l0.003,-0.017l0.001,-0.017c0.02,-0.249 0.02,-0.496 0.019,-0.735l0,-6.001c0,-0.639 0.532,-1.178 1.162,-1.178c0.629,0 1.161,0.539 1.161,1.178l0,6.328c0,0.308 -0.034,0.648 -0.108,1.072c-0.071,0.406 -0.212,0.785 -0.403,1.231c-0.127,0.297 -0.282,0.568 -0.459,0.805c-0.272,0.364 -0.522,0.687 -0.832,0.949c-0.731,0.619 -1.457,1.01 -2.218,1.194c-0.599,0.144 -1.21,0.164 -1.782,0.164l-12.212,0c-0.083,0 -0.167,0.001 -0.251,0.002c-0.277,0.003 -0.563,0.006 -0.83,-0.025c-0.441,-0.052 -0.87,-0.111 -1.274,-0.261c-0.336,-0.125 -0.77,-0.301 -1.144,-0.551c-0.741,-0.495 -1.326,-1.103 -1.738,-1.809c-0.496,-0.849 -0.747,-1.832 -0.747,-2.924l0,-13.324c0,-1.383 0.509,-2.706 1.434,-3.727c0.974,-1.076 2.439,-1.718 3.918,-1.718l6.227,0c0.63,0 1.162,0.539 1.162,1.177c0,0.639 -0.532,1.178 -1.162,1.178z"/>
  <path id="svg_2" class="cls-1" d="m22.839,58.39689c-0.63,0 -1.162,-0.54 -1.162,-1.178l0,-3.295l-8.833,8.958c-0.445,0.451 -1.197,0.451 -1.642,0c-0.445,-0.451 -0.445,-1.214 0,-1.666l8.833,-8.958l-3.249,0c-0.63,0 -1.162,-0.539 -1.162,-1.178c0,-0.638 0.532,-1.177 1.162,-1.177l6.053,0c0.149,0 0.295,0.03 0.434,0.089l0.024,0.01c0.137,0.058 0.259,0.141 0.363,0.246c0.103,0.105 0.185,0.229 0.242,0.368l0.011,0.024c0.057,0.142 0.087,0.29 0.087,0.44l0,6.139c0,0.638 -0.532,1.178 -1.161,1.178zm-11.258,-6.139l-5.056,0c-0.141,0 -0.287,-0.002 -0.428,-0.004c-0.376,-0.006 -0.764,-0.012 -1.148,0.021l-0.03,0.004c-0.252,0.048 -0.502,0.116 -0.742,0.205l-0.015,0.006l-0.014,0.006c-0.223,0.109 -0.44,0.238 -0.643,0.381l-0.024,0.019c-0.189,0.163 -0.367,0.343 -0.528,0.535l-0.018,0.024c-0.142,0.207 -0.268,0.426 -0.376,0.653l-0.006,0.014l-0.006,0.015c-0.086,0.239 -0.153,0.489 -0.199,0.74l-0.003,0.017l-0.002,0.017c-0.02,0.259 -0.019,0.516 -0.019,0.765c0.001,0.045 0.001,0.09 0.001,0.135l0,12.389c0,0.067 -0.001,0.135 -0.001,0.203c-0.002,0.269 -0.003,0.548 0.019,0.828l0.001,0.017l0.003,0.016c0.047,0.252 0.114,0.502 0.2,0.742l0.006,0.015l0.006,0.014c0.108,0.227 0.234,0.447 0.376,0.653l0.018,0.024c0.161,0.192 0.339,0.372 0.528,0.535l0.024,0.019c0.203,0.144 0.42,0.272 0.643,0.381l0.029,0.012c0.236,0.087 0.481,0.155 0.73,0.202l0.016,0.003l0.017,0.002c0.255,0.02 0.509,0.02 0.754,0.019c0.045,0 0.09,0 0.134,0l12.215,0c0.067,0 0.134,0 0.201,0.001c0.266,0.001 0.541,0.003 0.817,-0.02l0.016,-0.001l0.017,-0.003c0.248,-0.047 0.494,-0.116 0.731,-0.203l0.029,-0.012c0.223,-0.109 0.44,-0.237 0.643,-0.381l0.024,-0.019c0.189,-0.163 0.366,-0.343 0.527,-0.535l0.019,-0.024c0.142,-0.206 0.268,-0.426 0.375,-0.653l0.007,-0.014l0.006,-0.015c0.086,-0.239 0.153,-0.488 0.199,-0.739l0.003,-0.017l0.001,-0.017c0.02,-0.249 0.02,-0.496 0.019,-0.735l0,-6.001c0,-0.639 0.532,-1.178 1.162,-1.178c0.629,0 1.161,0.539 1.161,1.178l0,6.328c0,0.308 -0.034,0.648 -0.108,1.072c-0.071,0.406 -0.212,0.785 -0.403,1.231c-0.127,0.297 -0.282,0.568 -0.459,0.805c-0.272,0.364 -0.522,0.687 -0.832,0.949c-0.731,0.619 -1.457,1.01 -2.218,1.194c-0.599,0.144 -1.21,0.164 -1.782,0.164l-12.212,0c-0.083,0 -0.167,0.001 -0.251,0.002c-0.277,0.003 -0.563,0.006 -0.83,-0.025c-0.441,-0.052 -0.87,-0.111 -1.274,-0.261c-0.336,-0.125 -0.77,-0.301 -1.144,-0.551c-0.741,-0.495 -1.326,-1.103 -1.738,-1.809c-0.496,-0.849 -0.747,-1.832 -0.747,-2.924l0,-13.324c0,-1.383 0.509,-2.706 1.434,-3.727c0.974,-1.076 2.439,-1.718 3.918,-1.718l6.227,0c0.63,0 1.162,0.539 1.162,1.177c0,0.639 -0.532,1.178 -1.162,1.178z"/>
 </g>
</svg>