<svg xmlns="http://www.w3.org/2000/svg" width="28" height="17" viewBox="0 0 28 17">
  <metadata><?xpacket begin="﻿" id="W5M0MpCehiHzreSzNTczkc9d"?>
<x:xmpmeta xmlns:x="adobe:ns:meta/" x:xmptk="Adobe XMP Core 5.6-c138 79.159824, 2016/09/14-01:09:01        ">
   <rdf:RDF xmlns:rdf="http://www.w3.org/1999/02/22-rdf-syntax-ns#">
      <rdf:Description rdf:about=""/>
   </rdf:RDF>
</x:xmpmeta>

<?xpacket end="w"?></metadata>
<defs>
    <style>
      .cls-1 {
        fill: #fff;
        fill-rule: evenodd;
      }
    </style>
  </defs>
  <path id="behance_logo" class="cls-1" d="M1100.29,4621.41h-7.02v-1.71h7.02v1.71h0Zm-11.69,6.97a4.414,4.414,0,0,1,.68,2.49,4.856,4.856,0,0,1-.78,2.71,4.78,4.78,0,0,1-1.23,1.34,4.838,4.838,0,0,1-1.96.85,12.694,12.694,0,0,1-2.46.23H1075v-17h8.41q3.18,0.045,4.52,1.81a4.268,4.268,0,0,1,.79,2.6,3.7,3.7,0,0,1-.8,2.5,4.126,4.126,0,0,1-1.33.97A3.8,3.8,0,0,1,1088.6,4628.38Zm-9.58-2.68h3.68a3.619,3.619,0,0,0,1.85-.42,1.59,1.59,0,0,0,.7-1.49,1.512,1.512,0,0,0-.93-1.57,6.637,6.637,0,0,0-2.06-.27h-3.24v3.75Zm6.59,4.93a1.826,1.826,0,0,0-1.11-1.83,4.471,4.471,0,0,0-1.74-.28h-3.74v4.53h3.68a4.161,4.161,0,0,0,1.76-.3A2.125,2.125,0,0,0,1085.61,4630.63Zm17.28-2.77a16.985,16.985,0,0,1,.11,2.42h-9.09a2.9,2.9,0,0,0,1.3,2.57,3.435,3.435,0,0,0,1.8.45,2.811,2.811,0,0,0,1.81-.55,2.617,2.617,0,0,0,.67-0.84h3.33a3.86,3.86,0,0,1-1.2,2.2,6.18,6.18,0,0,1-4.7,1.78,6.891,6.891,0,0,1-4.39-1.5q-1.9-1.5-1.91-4.88a6.468,6.468,0,0,1,1.72-4.85,6.1,6.1,0,0,1,4.47-1.69,7.259,7.259,0,0,1,2.93.57,4.986,4.986,0,0,1,2.15,1.8A5.792,5.792,0,0,1,1102.89,4627.86Zm-3.28.32a2.642,2.642,0,0,0-.87-1.93,2.879,2.879,0,0,0-1.93-.66,2.642,2.642,0,0,0-1.95.7,3.273,3.273,0,0,0-.87,1.89h5.62Z" transform="translate(-1075 -4619)"/>
</svg>
